{"title":"Legend of the Guardians.720p.BRRip.x264.Feel-Free","uid":6025584,"size":1939073029,"categoryP":"video","categoryS":"hd___movies","magnet":"?xt=urn:btih:14ac1525fb5da41a1e8e5c5120a8f0f059f22afd&amp;dn=Legend+of+the+Guardians.720p.BRRip.x264.Feel-Free&amp;tr=udp%3A%2F%2Ftracker.openbittorrent.com%3A80&amp;tr=udp%3A%2F%2Fopen.demonii.com%3A1337&amp;tr=udp%3A%2F%2Ftracker.coppersurfer.tk%3A6969&amp;tr=udp%3A%2F%2Fexodus.desync.com%3A6969","seeders":0,"leechers":0,"uploader":"neon","files":-1,"time":1291917959,"description":"\nGenre:Animation | Adventure | Fantasy\nLanguage:English\n &lt;a href=&quot; http://www.imdb.com/title/tt1219342/&quot; rel=&quot;nofollow&quot; target=&quot;_NEW&quot;&gt; http://www.imdb.com/title/tt1219342/&lt;/a&gt;\nSource:D:720p.Bluray.x264-CBGB\nSubtitles:Romana\n\nFormat : Matroska\nFile size : 1.80 GiB\nDuration : 1h 36mn\nOverall bit rate : 2 663 Kbps\n\n\nVideo\nCodec ID : V_MPEG4/ISO/AVC\nDuration : 1h 36mn\nBit rate : 2 300 Kbps\nWidth : 1 280 pixels\nHeight : 544 pixels\nDisplay aspect ratio : 2.35:1\nFrame rate mode : Variable\nFrame rate : 23.976 fps\nColor space : YUV\nChroma subsampling : 4:2:0\nBit depth : 8 bits\nScan type : Progressive\nBits/(Pixel*Frame) : 0.138\nStream size : 1.51 GiB (84%)\nWriting library : x264 core 106 r1732 b20059a\n\n\nAudio\nID : 2\nFormat : AC-3\nFormat/Info : Audio Coding 3\nMode extension : CM (complete main)\nCodec ID : A_AC3\nDuration : 1h 36mn\nBit rate mode : Constant\nBit rate : 384 Kbps\nChannel(s) : 6 channels\nChannel positions : Front: L C R, Side: L R, LFE\nSampling rate : 48.0 KHz\nBit depth : 16 bits\nVideo delay : -1mn 5s\nStream size : 266 MiB (14%)\nLanguage : English\n\n\nPlot:\nSoren, a young barn owl, is kidnapped by owls of St. Aggie's, ostensibly an orphanage, where owlets are brainwashed into becoming soldiers. He and his new friends escape to the island of Ga'Hoole, to assist its noble, wise owls who fight the army being created by the wicked rulers of St. Aggie's. The film is based on the first three books in the series.\n\n","torrent":{"xt":"urn:btih:14ac1525fb5da41a1e8e5c5120a8f0f059f22afd","amp;dn":"Legend+of+the+Guardians.720p.BRRip.x264.Feel-Free","amp;tr":["udp%3A%2F%2Ftracker.openbittorrent.com%3A80","udp%3A%2F%2Fopen.demonii.com%3A1337","udp%3A%2F%2Ftracker.coppersurfer.tk%3A6969","udp%3A%2F%2Fexodus.desync.com%3A6969"],"infoHash":"14ac1525fb5da41a1e8e5c5120a8f0f059f22afd","infoHashBuffer":{"type":"Buffer","data":[20,172,21,37,251,93,164,26,30,142,92,81,32,168,240,240,89,242,42,253]},"announce":[],"urlList":[]}}